<?xml version="1.0" standalone="no"?>
<!DOCTYPE svg PUBLIC "-//W3C//DTD SVG 20010904//EN"
 "http://www.w3.org/TR/2001/REC-SVG-20010904/DTD/svg10.dtd">
<svg version="1.0" xmlns="http://www.w3.org/2000/svg"
 width="691.000000pt" height="691.000000pt" viewBox="0 0 691.000000 691.000000"
 preserveAspectRatio="xMidYMid meet">
<metadata>
Created by potrace 1.14, written by Peter Selinger 2001-2017
</metadata>
<g transform="translate(0.000000,691.000000) scale(0.100000,-0.100000)"
fill="#000000" stroke="none">
<path d="M3180 5979 c-177 -20 -339 -72 -477 -153 -105 -61 -96 -70 27 -28 19
6 13 5 160 47 69 19 139 38 155 40 28 5 29 4 11 -10 -11 -8 -23 -15 -28 -15
-9 0 -190 -80 -258 -114 -131 -66 -223 -131 -312 -219 -112 -113 -168 -251
-173 -425 -1 -56 -4 -105 -7 -108 -5 -4 -40 34 -80 86 -72 95 -188 211 -275
274 -90 65 -325 170 -426 190 -12 3 -47 10 -77 16 -155 31 -318 40 -487 26
-45 -4 -92 -9 -105 -12 -13 -2 -39 -7 -57 -10 -97 -16 -264 -95 -373 -175
-172 -128 -312 -345 -363 -564 -36 -152 12 -421 107 -610 83 -163 170 -264
383 -440 26 -22 53 -45 59 -50 36 -34 189 -155 301 -238 72 -53 136 -102 143
-108 7 -5 197 -133 422 -284 553 -370 759 -520 840 -612 23 -26 62 -82 86
-125 54 -92 66 -104 85 -82 7 8 14 23 14 32 1 10 5 37 8 62 3 25 9 72 13 105
9 78 41 185 57 186 7 1 18 1 26 -1 11 -1 -38 66 -86 118 -7 7 -13 18 -13 23 0
5 -4 9 -8 9 -5 0 -19 -31 -32 -69 l-24 -69 -42 30 c-24 17 -114 103 -201 191
-89 91 -199 191 -253 231 -181 133 -325 240 -330 246 -3 3 -39 30 -80 62 -41
31 -85 64 -98 74 -455 366 -600 496 -752 674 -30 35 -63 73 -72 83 -22 25 -87
149 -100 190 -55 178 -51 233 28 397 17 36 39 90 48 120 10 30 20 62 23 70 4
8 7 17 7 20 1 3 12 24 26 48 48 85 226 165 420 187 30 4 65 8 78 10 28 3 39
13 21 19 -12 4 -123 21 -197 30 -38 5 -35 14 8 21 49 8 249 10 276 2 10 -3 39
-9 64 -12 106 -14 295 -84 564 -210 43 -20 118 -52 165 -71 127 -52 154 -68
205 -118 31 -30 68 -53 108 -68 56 -20 62 -26 80 -67 11 -25 26 -63 35 -84 27
-62 35 -36 48 149 3 44 8 91 10 105 3 13 8 40 11 59 11 57 53 168 86 223 45
78 92 132 166 191 140 112 292 169 508 193 94 10 120 8 244 -19 30 -6 57 -12
60 -13 89 -18 260 -108 325 -170 105 -100 204 -282 235 -435 15 -75 13 -224
-5 -310 -8 -39 -15 -75 -15 -79 0 -5 30 -23 68 -41 37 -18 91 -48 120 -67 60
-38 67 -39 82 -15 9 13 10 10 5 -15 -4 -18 -3 -33 2 -33 4 0 19 -9 32 -19 l25
-19 -35 -31 -34 -32 25 -19 c14 -11 28 -20 31 -20 21 0 86 184 105 295 15 90
12 335 -5 425 -6 30 -13 66 -15 80 -25 133 -141 398 -216 495 -40 51 -151 155
-205 192 -145 97 -266 140 -425 148 -58 3 -121 7 -140 10 -62 9 -293 12 -360
4z m234 -60 c25 -7 35 -14 28 -21 -25 -25 -105 -7 -88 20 9 15 11 15 60 1z
m-2714 -639 c0 -13 -48 -36 -56 -27 -4 3 -4 13 -1 22 7 17 57 21 57 5z m3726
-681 c-13 -29 -15 -30 -13 -9 3 27 16 54 24 47 2 -3 -3 -20 -11 -38z m-3838
-517 c20 -29 54 -74 75 -100 40 -50 44 -62 24 -62 -16 0 -72 59 -119 125 -36
50 -128 223 -128 240 0 5 25 -26 55 -70 31 -44 72 -104 93 -133z m917 -826
c33 -22 71 -51 85 -64 l25 -24 -25 12 c-30 15 -170 118 -170 126 0 6 10 1 85
-50z"/>
<path d="M3458 4635 c-6 -5 -112 -16 -198 -20 -126 -7 -165 -13 -234 -39 -125
-47 -233 -116 -328 -211 -77 -76 -124 -143 -183 -263 -109 -222 -148 -390
-147 -637 0 -112 5 -166 26 -270 16 -76 90 -238 148 -323 175 -254 612 -621
1176 -987 244 -159 373 -249 399 -278 36 -42 46 -59 115 -202 53 -111 72 -133
95 -109 25 24 52 17 66 -19 15 -34 35 -137 43 -217 3 -25 6 -54 9 -65 2 -11 4
-30 4 -42 1 -12 10 -27 21 -33 17 -9 24 -2 61 62 81 138 101 161 245 277 6 5
48 36 95 70 46 34 91 68 100 74 45 35 114 82 444 302 198 133 385 258 415 280
147 102 185 130 190 135 3 3 32 25 65 50 33 24 65 49 71 55 6 5 23 19 38 30
16 11 33 25 40 30 6 6 51 44 100 85 160 134 289 255 342 321 59 72 145 241
174 339 57 191 63 398 16 529 -95 261 -244 440 -468 560 -167 91 -314 122
-573 122 -247 0 -452 -46 -670 -150 -166 -79 -261 -158 -415 -346 -45 -55 -86
-101 -91 -103 -5 -2 -8 25 -7 60 3 143 -28 266 -94 376 -67 111 -237 243 -433
336 -115 55 -175 82 -217 97 -21 7 -38 17 -38 21 0 4 2 8 5 8 10 0 234 -62
328 -91 55 -17 101 -28 104 -26 5 5 -86 62 -153 95 -80 40 -241 89 -359 108
-40 6 -321 14 -327 9z m115 -69 c7 -17 -36 -34 -71 -28 -29 4 -24 24 9 33 39
11 57 10 62 -5z m97 -252 c93 -12 117 -17 198 -40 264 -77 455 -262 527 -513
19 -64 29 -137 40 -281 5 -69 11 -110 19 -117 7 -7 42 67 50 103 9 40 40 67
91 82 23 6 55 24 72 39 17 16 46 41 64 58 19 16 79 48 134 71 55 23 177 76
270 119 226 103 220 100 300 128 125 44 265 69 385 70 91 1 201 -13 194 -24
-3 -5 -8 -7 -12 -5 -9 5 -221 -29 -229 -38 -3 -3 0 -6 8 -7 8 0 23 -2 34 -4
11 -2 40 -7 65 -10 210 -27 378 -102 426 -189 13 -22 34 -76 49 -120 15 -45
43 -114 62 -154 63 -134 65 -144 48 -270 -7 -49 -40 -144 -78 -217 -53 -105
-278 -344 -503 -535 -51 -44 -247 -204 -292 -239 -24 -19 -53 -42 -65 -52 -19
-16 -85 -68 -122 -97 -5 -4 -46 -34 -90 -67 -44 -33 -84 -63 -90 -67 -5 -4
-23 -18 -40 -31 -16 -13 -82 -60 -145 -106 -77 -56 -166 -134 -270 -239 -153
-154 -238 -232 -256 -232 -5 0 -26 51 -47 113 -68 201 -127 297 -272 443 -55
55 -154 143 -220 195 -66 52 -127 100 -135 106 -138 113 -272 214 -385 289
-152 100 -252 190 -355 320 -63 80 -86 108 -95 118 -65 69 -152 225 -184 330
-50 164 -61 348 -28 475 47 178 175 376 292 449 84 53 249 123 290 123 2 0 18
4 35 9 17 5 54 12 83 15 28 4 53 8 55 10 4 3 41 0 122 -11z m2610 -384 c11 -7
12 -12 3 -21 -14 -14 -49 -4 -57 16 -6 17 30 21 54 5z m-3770 -684 c0 -26 -9
-16 -20 25 -9 31 -8 32 5 15 8 -11 15 -29 15 -40z m103 -181 c113 -170 132
-205 109 -205 -12 0 -65 59 -99 110 -32 47 -103 191 -103 206 1 12 53 -50 93
-111z m3840 -202 c-83 -163 -180 -293 -219 -293 -7 0 -14 2 -14 5 0 3 26 39
58 80 57 75 68 90 152 209 25 35 47 62 49 60 2 -1 -10 -29 -26 -61z m-3073
-543 c0 -5 -4 -10 -10 -10 -5 0 -10 5 -10 10 0 6 5 10 10 10 6 0 10 -4 10 -10z
m183 -127 c16 -13 25 -23 22 -23 -16 0 -122 70 -145 96 -22 23 -17 22 35 -12
33 -21 73 -49 88 -61z m1930 -250 c-6 -2 -24 -15 -40 -29 -38 -35 -104 -79
-128 -88 -12 -4 -6 5 15 23 19 17 38 30 42 31 4 0 13 6 21 14 27 27 90 66 96
60 3 -4 1 -9 -6 -11z"/>
<path d="M3771 4085 c-101 -116 -159 -166 -327 -278 -71 -47 -214 -154 -319
-237 -104 -84 -202 -160 -216 -171 -25 -17 -26 -22 -18 -56 5 -21 12 -48 14
-60 12 -52 74 -183 88 -183 10 0 365 235 535 354 231 163 462 348 597 478 l50
49 -58 53 c-52 48 -184 125 -242 140 -17 5 -38 -13 -104 -89z m-201 -413 c0
-13 -12 -22 -22 -16 -10 6 -1 24 13 24 5 0 9 -4 9 -8z m-95 -67 c-40 -34 -135
-91 -135 -81 0 6 162 116 170 116 3 -1 -13 -16 -35 -35z"/>
</g>
</svg>
